<?xml version="1.0" encoding="UTF-8"?>
<svg id="Layer_2" data-name="Layer 2" xmlns="http://www.w3.org/2000/svg" viewBox="0 0 512.73 169.05">
  <defs>
    <style>
      .cls-1 {
        font-family: Poppins-Bold, Poppins;
        font-size: 115.91px;
        font-weight: 700;
      }

      .cls-1, .cls-2 {
        fill: #231f20;
      }

      .cls-3 {
        fill: #f8f9fa;
      }

      .cls-3, .cls-2 {
        stroke-width: 0px;
      }
    </style>
  </defs>
  <g id="Layer_1-2" data-name="Layer 1">
    <g>
      <g>
        <rect class="cls-2" y="4.23" width="26.77" height="26.77"/>
        <rect class="cls-2" y="54.35" width="26.77" height="26.77"/>
        <rect class="cls-2" y="107.1" width="26.77" height="26.77"/>
        <rect class="cls-2" x="53.55" y="54.35" width="26.77" height="26.77"/>
        <rect class="cls-2" x="53.55" y="4.23" width="26.77" height="26.77"/>
        <rect class="cls-2" x="109.92" y="4.33" width="26.77" height="26.77"/>
      </g>
      <g>
        <path class="cls-2" d="M168.26,19.03l15.87,20.12c2.17,2.76,3.06,5.9,2.64,9.4-.41,3.51-2.01,6.37-4.77,8.59l-94.67,74.6c-.75.59-1.58.91-2.5.96l-35.84,1.07c-1.43.03-2.58-.51-3.45-1.6s-1.17-2.4-.81-3.79l9.4-34.6c.26-.88.76-1.62,1.51-2.21L150.33,16.91c2.76-2.18,5.89-3.06,9.4-2.64s6.35,2,8.53,4.76Z"/>
        <polygon class="cls-2" points="81.24 124.22 61.53 99.24 56.59 117.38 62.45 124.81 81.24 124.22"/>
        <rect class="cls-2" x="66.06" y="66.99" width="80.8" height="34.16" transform="translate(-29.19 83.98) rotate(-38.26)"/>
        <polygon class="cls-3" points="138 26.78 122.98 38.39 154.88 78.35 169.82 66.63 138 26.78"/>
      </g>
      <text class="cls-1" transform="translate(194.94 98.81)"><tspan x="0" y="0">D.R.A</tspan></text>
    </g>
  </g>
</svg>